<svg width="22" height="20" viewBox="0 0 22 20" fill="none" xmlns="http://www.w3.org/2000/svg">
<path fill-rule="evenodd" clip-rule="evenodd" d="M12.7557 1.13063C11.9977 -0.259095 10.0022 -0.259096 9.24416 1.13063L0.613247 16.954C-0.113707 18.2867 0.850919 19.9117 2.36904 19.9117H19.6309C21.149 19.9117 22.1136 18.2867 21.3867 16.954L12.7557 1.13063ZM9.99995 7.91168C9.99995 7.3594 10.4477 6.91168 11 6.91168C11.5522 6.91168 12 7.3594 12 7.91168V12.9117C12 13.464 11.5522 13.9117 11 13.9117C10.4477 13.9117 9.99995 13.464 9.99995 12.9117V7.91168ZM12 15.9117C12 16.464 11.5522 16.9117 11 16.9117C10.4477 16.9117 9.99995 16.464 9.99995 15.9117C9.99995 15.3594 10.4477 14.9117 11 14.9117C11.5522 14.9117 12 15.3594 12 15.9117Z" fill="#282828"/>
</svg>
