<svg width="12" height="12" viewBox="0 0 12 12" fill="none" xmlns="http://www.w3.org/2000/svg">
<path d="M1.05071 1.05022C0.660181 1.44074 0.660182 2.07391 1.05071 2.46443L4.58624 5.99996L1.05071 9.5355C0.660181 9.92602 0.660181 10.5592 1.05071 10.9497C1.44123 11.3402 2.0744 11.3402 2.46492 10.9497L6.00045 7.41418L9.53599 10.9497C9.92651 11.3402 10.5597 11.3402 10.9502 10.9497C11.3407 10.5592 11.3407 9.92602 10.9502 9.5355L7.41467 5.99996L10.9502 2.46443C11.3407 2.07391 11.3407 1.44074 10.9502 1.05022C10.5597 0.659693 9.92651 0.659694 9.53599 1.05022L6.00045 4.58575L2.46492 1.05022C2.07439 0.659693 1.44123 0.659693 1.05071 1.05022Z" fill="#282828"/>
</svg>
