<svg width="16" height="16" viewBox="0 0 16 16" fill="none" xmlns="http://www.w3.org/2000/svg">
<path d="M10.8941 14.9111L10.892 14.912C9.99076 15.3032 9.02847 15.5 8 15.5C6.97152 15.5 6.0092 15.3032 5.10801 14.912L5.10592 14.9111C4.19742 14.5217 3.39932 13.9819 2.70839 13.2906L2.35475 13.6441L2.70839 13.2906C2.01695 12.5989 1.47471 11.8024 1.08026 10.898C0.694355 9.99662 0.5 9.03098 0.5 7.99616C0.5 6.96644 0.694355 6.00596 1.08025 5.10963C1.47503 4.19946 2.01507 3.40027 2.70132 2.70875C3.39209 2.01777 4.19 1.47824 5.09828 1.0888L5.09829 1.0888L5.10034 1.08791C6.00151 0.696736 6.96384 0.5 7.99233 0.5C9.02083 0.5 9.98318 0.696738 10.8843 1.08791L10.8843 1.08792L10.8872 1.08918C11.8006 1.4787 12.5978 2.01803 13.2827 2.70811L13.284 2.70934C13.9753 3.40104 14.5177 4.20024 14.9123 5.1102L14.9127 5.11109C15.3033 6.00712 15.5 6.96709 15.5 7.99616C15.5 9.03052 15.3032 9.99579 14.9125 10.8971C14.518 11.8018 13.9756 12.5986 13.2839 13.2906L13.2827 13.2919C12.5974 13.9824 11.8022 14.5218 10.8941 14.9111ZM6.47475 12.1388L6.48149 12.1426L6.48834 12.1462C6.69427 12.2533 6.91782 12.3024 7.14861 12.3024C7.3834 12.3024 7.60876 12.2466 7.8148 12.1312L7.81482 12.1313L7.82057 12.128C8.02092 12.0122 8.18731 11.8553 8.31911 11.6648L8.32358 11.6584L8.32785 11.6518L11.9096 6.11152C11.9841 5.99646 12.0454 5.87462 12.0934 5.74661C12.155 5.5966 12.1894 5.43737 12.1894 5.27194C12.1894 4.91104 12.0432 4.59441 11.7624 4.36468C11.5156 4.15864 11.2217 4.0506 10.8993 4.0506C10.4095 4.0506 10.0412 4.32943 9.7939 4.72109L9.79279 4.72287L7.0763 9.06593L6.09762 7.838L6.09713 7.83739C5.9698 7.67815 5.81706 7.5329 5.63238 7.43837C5.45173 7.34091 5.25543 7.29664 5.05465 7.29664C4.70667 7.29664 4.39616 7.4267 4.15341 7.67642C3.91088 7.92059 3.78763 8.22929 3.78763 8.5717C3.78763 8.73373 3.81622 8.89193 3.87212 9.04375L3.87775 9.05906L3.88438 9.07397C3.94252 9.20485 4.01852 9.33064 4.10747 9.45142L4.11612 9.46317L4.12545 9.4744L5.96984 11.6948C6.11254 11.8754 6.2793 12.0294 6.47475 12.1388Z" fill="#8A8A8A" stroke="black"/>
</svg>
