<svg width="24" height="24" viewBox="0 0 24 24" fill="none" xmlns="http://www.w3.org/2000/svg">
<path fill-rule="evenodd" clip-rule="evenodd" d="M12 7.60422L10.5858 6.19C9.0792 4.68341 6.63654 4.68341 5.12994 6.19C3.62335 7.6966 3.62335 10.1393 5.12994 11.6458L12 18.5159L18.8701 11.6458C20.3766 10.1393 20.3766 7.69659 18.8701 6.19C17.3635 4.68341 14.9208 4.68341 13.4142 6.19L12 7.60422ZM12.0014 4.77437C14.2892 2.48814 17.9971 2.48863 20.2843 4.77579C22.5719 7.06343 22.5719 10.7724 20.2843 13.0601L12.6904 20.654C12.3091 21.0352 11.6909 21.0352 11.3096 20.654L3.71573 13.0601C1.4281 10.7724 1.42808 7.06344 3.71573 4.77579C6.00338 2.48814 9.71236 2.48815 12 4.77579C12.0005 4.77532 12.0009 4.77484 12.0014 4.77437Z" fill="#282828"/>
</svg>
