<svg width="18" height="20" viewBox="0 0 18 20" fill="none" xmlns="http://www.w3.org/2000/svg">
<path fill-rule="evenodd" clip-rule="evenodd" d="M9.43546 19.8805C11.1115 18.9048 17.048 14.9607 17.048 8.04843C17.048 3.6034 13.4446 0 8.99961 0C4.55458 0 0.951172 3.6034 0.951172 8.04843C0.951172 14.9607 6.88773 18.9048 8.56375 19.8805C8.83742 20.0398 9.1618 20.0398 9.43546 19.8805ZM8.99962 12.0724C11.2221 12.0724 13.0238 10.2707 13.0238 8.04814C13.0238 5.82563 11.2221 4.02393 8.99962 4.02393C6.77711 4.02393 4.9754 5.82563 4.9754 8.04814C4.9754 10.2707 6.77711 12.0724 8.99962 12.0724Z" fill="#282828"/>
</svg>
