<svg width="18" height="20" viewBox="0 0 18 20" fill="none" xmlns="http://www.w3.org/2000/svg">
<path fill-rule="evenodd" clip-rule="evenodd" d="M9.00008 0C11.419 0 13.4368 1.71776 13.9001 4H15.1212C16.1773 4 17.0514 4.82117 17.1173 5.87524L17.8673 17.8752C17.9392 19.0266 17.0248 20 15.8712 20H2.12898C0.975335 20 0.0609102 19.0266 0.132872 17.8752L0.882873 5.87524C0.948752 4.82117 1.82285 4 2.87898 4H4.10009C4.56336 1.71776 6.58112 0 9.00008 0ZM9.00008 2C10.3063 2 11.4175 2.83481 11.8294 4H6.17078C6.58262 2.83481 7.69386 2 9.00008 2ZM4.00007 8C4.00007 7.44772 4.44778 7 5.00007 7C5.55235 7 6.00007 7.44772 6.00007 8C6.00007 8.55228 5.55235 9 5.00007 9C4.44778 9 4.00007 8.55228 4.00007 8ZM12.0001 8C12.0001 7.44772 12.4478 7 13.0001 7C13.5524 7 14.0001 7.44772 14.0001 8C14.0001 8.55228 13.5524 9 13.0001 9C12.4478 9 12.0001 8.55228 12.0001 8Z" fill="#282828"/>
</svg>
