<svg width="17" height="21" viewBox="0 0 17 21" fill="none" xmlns="http://www.w3.org/2000/svg">
<path fill-rule="evenodd" clip-rule="evenodd" d="M5.71558 5.71559C5.71558 4.05874 7.05872 2.71559 8.71558 2.71559C10.3724 2.71559 11.7156 4.05874 11.7156 5.71559V9.71559H5.71558V5.71559ZM8.71558 0.715591C5.95415 0.715591 3.71558 2.95417 3.71558 5.71559V9.96559H1.71558C1.30136 9.96559 0.965576 10.3014 0.965576 10.7156V18.2156C0.965576 19.4582 1.97294 20.4656 3.21558 20.4656H14.2156C15.4582 20.4656 16.4656 19.4582 16.4656 18.2156V10.7156C16.4656 10.3014 16.1298 9.96559 15.7156 9.96559H13.7156V5.71559C13.7156 2.95417 11.477 0.715591 8.71558 0.715591ZM8.71558 12.7156C9.544 12.7156 10.2156 13.3872 10.2156 14.2156C10.2156 14.7805 9.90332 15.2724 9.442 15.5283C9.45739 15.5881 9.46558 15.6509 9.46558 15.7156V17.7156C9.46558 18.1298 9.12979 18.4656 8.71558 18.4656C8.30136 18.4656 7.96558 18.1298 7.96558 17.7156V15.7156C7.96558 15.6509 7.97376 15.5881 7.98916 15.5283C7.52783 15.2724 7.21558 14.7805 7.21558 14.2156C7.21558 13.3872 7.88715 12.7156 8.71558 12.7156Z" fill="#BBBBBB"/>
</svg>
