<svg width="21" height="21" viewBox="0 0 21 21" fill="none" xmlns="http://www.w3.org/2000/svg">
<path fill-rule="evenodd" clip-rule="evenodd" d="M1.46558 0.715591C1.05136 0.715591 0.715576 1.05138 0.715576 1.46559C0.715576 1.8798 1.05136 2.21559 1.46558 2.21559H3.37999L3.73797 3.64749L5.51621 10.7605C4.48889 10.9687 3.71558 11.8768 3.71558 12.9656C3.71558 14.2082 4.72294 15.2156 5.96558 15.2156H17.4656C17.8798 15.2156 18.2156 14.8798 18.2156 14.4656C18.2156 14.0514 17.8798 13.7156 17.4656 13.7156H5.96558C5.55136 13.7156 5.21558 13.3798 5.21558 12.9656C5.21558 12.5514 5.55136 12.2156 5.96558 12.2156H6.46558H17.4656C17.8097 12.2156 18.1097 11.9814 18.1932 11.6475L20.1932 3.64749C20.2492 3.42344 20.1989 3.18607 20.0567 3.00403C19.9146 2.822 19.6965 2.71559 19.4656 2.71559H5.05116L4.69318 1.28369C4.60971 0.949814 4.30973 0.715591 3.96558 0.715591H1.46558ZM6.46558 16.7156C5.49908 16.7156 4.71558 17.4991 4.71558 18.4656C4.71558 19.4321 5.49908 20.2156 6.46558 20.2156C7.43207 20.2156 8.21558 19.4321 8.21558 18.4656C8.21558 17.4991 7.43207 16.7156 6.46558 16.7156ZM16.4656 16.7156C15.4991 16.7156 14.7156 17.4991 14.7156 18.4656C14.7156 19.4321 15.4991 20.2156 16.4656 20.2156C17.4321 20.2156 18.2156 19.4321 18.2156 18.4656C18.2156 17.4991 17.4321 16.7156 16.4656 16.7156Z" fill="white"/>
</svg>
