<svg width="18" height="20" viewBox="0 0 18 20" fill="none" xmlns="http://www.w3.org/2000/svg">
<path fill-rule="evenodd" clip-rule="evenodd" d="M13.9001 4C13.4368 1.71776 11.419 0 9.00007 0C6.58111 0 4.56336 1.71776 4.10009 4H2.87899C1.82287 4 0.948767 4.82117 0.882888 5.87524L0.132888 17.8752C0.0609256 19.0266 0.97535 20 2.12899 20H15.8712C17.0248 20 17.9393 19.0266 17.8673 17.8752L17.1173 5.87524C17.0514 4.82117 16.1773 4 15.1212 4H13.9001ZM11.8294 4C11.4175 2.83481 10.3063 2 9.00007 2C7.69385 2 6.58261 2.83481 6.17077 4H11.8294ZM2.87899 6H4.00007V8C4.00007 8.55229 4.44778 9 5.00007 9C5.55235 9 6.00007 8.55229 6.00007 8V6H12.0001V8C12.0001 8.55229 12.4478 9 13.0001 9C13.5524 9 14.0001 8.55229 14.0001 8V6H15.1212L15.8712 18H2.12899L2.87899 6Z" fill="#282828"/>
</svg>
