<svg width="18" height="20" viewBox="0 0 18 20" fill="none" xmlns="http://www.w3.org/2000/svg">
<path fill-rule="evenodd" clip-rule="evenodd" d="M13.9995 5C13.9995 7.76142 11.7609 10 8.99952 10C6.23809 10 3.99952 7.76142 3.99952 5C3.99952 2.23858 6.23809 0 8.99952 0C11.7609 0 13.9995 2.23858 13.9995 5ZM11.9995 5C11.9995 6.65685 10.6564 8 8.99952 8C7.34266 8 5.99952 6.65685 5.99952 5C5.99952 3.34315 7.34266 2 8.99952 2C10.6564 2 11.9995 3.34315 11.9995 5Z" fill="#282828"/>
<path d="M16.9995 20C16.4472 20 16.007 19.5497 15.9291 19.003C15.4451 15.6092 12.527 13 8.99952 13C5.47202 13 2.55394 15.6092 2.06998 19.003C1.99202 19.5497 1.5518 20 0.999519 20C0.447234 20 -0.00631363 19.5506 0.0542706 19.0016C0.550986 14.5009 4.36641 11 8.99952 11C13.6326 11 17.4481 14.5009 17.9448 19.0016C18.0054 19.5506 17.5518 20 16.9995 20Z" fill="#282828"/>
</svg>
